HIERARCHY
ROOT Hips
{
	OFFSET	0.00	0.00	0.00
	CHANNELS 6 Xposition Yposition Zposition Zrotation Xrotation Yrotation
	JOINT Chest
	{
		OFFSET	0.00	6.28	0.00
		CHANNELS 3 Zrotation Xrotation Yrotation
		JOINT Neck
		{
			OFFSET	0.00	14.30	0.00
			CHANNELS 3 Zrotation Xrotation Yrotation
			JOINT Head
			{
				OFFSET	0.00	2.64	0.00
				CHANNELS 3 Zrotation Xrotation Yrotation
				End Site
				{
					OFFSET	0.00	4.50	0.00
				}
			}
		}
		JOINT LeftCollar
		{
			OFFSET	1.12	11.36	1.87
			CHANNELS 3 Zrotation Xrotation Yrotation
			JOINT LeftUpArm
			{
				OFFSET	4.57	2.02	-1.82
				CHANNELS 3 Zrotation Xrotation Yrotation
				JOINT LeftLowArm
				{
					OFFSET	0.22	-10.35	-0.06
					CHANNELS 3 Zrotation Xrotation Yrotation
					JOINT LeftHand
					{
						OFFSET	0.09	-10.35	2.18
						CHANNELS 3 Zrotation Xrotation Yrotation
						End Site
						{
							OFFSET	0.13	-6.69	1.71
						}
					}
				}
			}
		}
		JOINT RightCollar
		{
			OFFSET	-1.12	11.36	1.87
			CHANNELS 3 Zrotation Xrotation Yrotation
			JOINT RightUpArm
			{
				OFFSET	-4.71	2.03	-1.82
				CHANNELS 3 Zrotation Xrotation Yrotation
				JOINT RightLowArm
				{
					OFFSET	-0.26	-10.43	-0.06
					CHANNELS 3 Zrotation Xrotation Yrotation
					JOINT RightHand
					{
						OFFSET	0.00	-10.26	2.18
						CHANNELS 3 Zrotation Xrotation Yrotation
						End Site
						{
							OFFSET	-0.14	-6.67	1.71
						}
					}
				}
			}
		}
	}
	JOINT LeftUpLeg
	{
		OFFSET	3.91	0.00	0.00
		CHANNELS 3 Zrotation Xrotation Yrotation
		JOINT LeftLowLeg
		{
			OFFSET	-0.44	-17.57	1.70
			CHANNELS 3 Zrotation Xrotation Yrotation
			JOINT LeftFoot
			{
				OFFSET	-0.04	-17.20	-1.48
				CHANNELS 3 Zrotation Xrotation Yrotation
				End Site
				{
					OFFSET	0.00	-3.93	5.23
				}
			}
		}
	}
	JOINT RightUpLeg
	{
		OFFSET	-3.91	0.00	0.00
		CHANNELS 3 Zrotation Xrotation Yrotation
		JOINT RightLowLeg
		{
			OFFSET	0.44	-17.62	1.70
			CHANNELS 3 Zrotation Xrotation Yrotation
			JOINT RightFoot
			{
				OFFSET	0.00	-17.14	-1.48
				CHANNELS 3 Zrotation Xrotation Yrotation
				End Site
				{
					OFFSET	0.00	-4.04	5.23
				}
			}
		}
	}
}
MOTION
Frames: 20
Frame Time: 0.04
-12.80	3.58	0.87	-44.91	1.09	86.85	6.49	20.08	-3.43	-2.16	-8.21	-5.05	0.40	-39.88	0.35	-21.08	25.22	8.81	37.87	-58.05	-34.54	1.77	-43.16	-2.54	-0.28	2.46	-0.06	17.19	30.68	-8.26	-33.53	-64.07	26.55	-3.80	-38.44	6.02	-17.99	3.00	-3.80	22.50	-57.69	38.74	-4.69	28.02	-17.82	2.20	-11.49	0.08	-21.21	-53.46	-33.55	3.26	18.61	12.31	1.39	-6.47	5.01	
-12.81	3.58	0.86	-45.08	1.13	86.90	6.37	20.21	-3.42	-2.02	-8.18	-4.95	0.23	-39.74	0.20	-20.96	25.36	8.77	37.11	-58.60	-35.24	1.29	-42.53	-1.21	-1.84	2.47	-0.39	17.29	30.62	-8.26	-32.72	-64.77	27.05	-3.68	-38.19	5.71	-17.36	2.96	-3.67	22.54	-57.88	38.90	-4.71	28.03	-17.88	2.23	-11.48	0.08	-21.48	-53.67	-33.64	3.26	18.73	12.25	1.41	-6.54	5.01	
-12.82	3.57	0.86	-45.26	1.13	86.85	6.32	20.25	-3.42	-1.93	-8.11	-4.85	0.04	-39.59	0.04	-20.79	25.39	8.63	36.40	-58.62	-35.60	1.09	-42.42	-0.65	-1.15	2.47	-0.24	17.21	30.57	-8.21	-31.95	-65.21	27.80	-3.47	-38.35	5.04	-16.53	2.91	-3.50	22.84	-58.05	39.27	-4.75	28.14	-17.94	2.27	-11.53	0.08	-21.57	-53.90	-33.87	3.27	18.82	12.29	1.40	-6.54	5.01	
-12.82	3.56	0.85	-45.49	1.09	86.78	6.37	20.17	-3.44	-1.96	-8.00	-5.13	0.33	-39.51	0.28	-20.67	25.21	8.46	35.84	-58.25	-35.80	1.10	-42.37	-0.69	-1.24	2.47	-0.26	16.95	30.40	-8.06	-31.32	-65.21	28.52	-3.38	-38.83	4.69	-15.68	2.85	-3.32	23.31	-58.25	39.89	-4.79	28.29	-18.09	2.34	-11.56	0.09	-21.58	-54.14	-33.82	3.28	18.83	12.28	1.48	-6.56	5.01	
-12.83	3.56	0.85	-45.75	1.03	86.82	6.44	20.04	-3.38	-1.99	-7.91	-5.53	0.62	-39.54	0.53	-20.63	25.21	8.33	35.72	-58.04	-35.88	1.34	-42.36	-1.35	-0.87	2.46	-0.19	16.96	30.34	-8.12	-31.33	-65.25	28.71	-3.51	-39.24	5.03	-16.94	2.93	-3.58	23.55	-58.53	40.14	-4.81	28.32	-18.15	2.34	-11.54	0.09	-21.67	-54.36	-34.09	3.28	18.81	12.25	1.51	-6.57	5.01	
-12.83	3.56	0.85	-45.94	1.04	86.88	6.43	20.01	-3.31	-1.99	-7.88	-5.60	0.49	-39.52	0.42	-20.63	25.30	8.29	35.77	-58.06	-35.94	1.50	-42.42	-1.81	-0.32	2.46	-0.07	17.00	30.35	-8.25	-31.48	-65.35	28.82	-3.68	-39.63	5.47	-17.67	2.98	-3.73	23.53	-58.69	40.10	-4.82	28.21	-18.13	2.32	-11.49	0.09	-21.81	-54.49	-34.20	3.28	18.77	12.18	1.51	-6.56	5.01	
-12.82	3.57	0.85	-46.00	1.09	86.92	6.35	20.15	-3.33	-1.99	-7.90	-5.71	0.66	-39.48	0.57	-20.67	25.39	8.39	35.83	-58.19	-35.86	1.35	-42.44	-1.38	-1.09	2.46	-0.23	17.01	30.41	-8.27	-31.50	-65.50	28.82	-3.71	-39.78	5.52	-17.62	2.97	-3.72	23.40	-58.72	39.95	-4.83	28.11	-18.06	2.26	-11.42	0.08	-21.89	-54.52	-34.21	3.28	18.73	12.11	1.49	-6.55	5.01	
-12.81	3.58	0.86	-45.99	1.12	86.97	6.27	20.43	-3.30	-1.93	-8.04	-5.68	0.68	-39.39	0.59	-20.80	25.65	8.65	36.05	-58.62	-35.67	1.29	-42.49	-1.21	-1.76	2.47	-0.37	17.19	30.62	-8.43	-31.61	-65.87	28.31	-4.26	-39.41	7.28	-19.51	3.10	-4.11	23.23	-58.69	39.77	-4.83	28.02	-18.02	2.27	-11.39	0.08	-21.95	-54.50	-34.18	3.28	18.74	12.05	1.50	-6.56	5.01	
-12.80	3.59	0.86	-45.97	1.20	87.09	6.09	20.84	-3.27	-1.79	-8.31	-5.59	0.53	-39.41	0.46	-21.08	26.13	9.13	36.54	-59.50	-35.39	1.28	-42.43	-1.21	-2.39	2.47	-0.51	17.56	30.93	-8.86	-31.65	-66.49	28.12	-4.30	-39.69	7.32	-21.64	3.26	-4.54	22.82	-58.63	39.43	-4.83	27.81	-18.01	2.24	-11.33	0.07	-22.17	-54.44	-34.37	3.28	18.78	12.06	1.41	-6.59	5.01	
-12.80	3.58	0.87	-46.06	1.18	87.19	6.15	20.96	-3.37	-1.80	-8.41	-5.54	0.55	-39.45	0.47	-21.22	26.21	9.26	36.74	-59.71	-35.21	1.32	-42.40	-1.31	-2.73	2.48	-0.58	17.70	31.12	-9.01	-31.80	-66.78	27.65	-4.28	-39.64	7.28	-22.00	3.29	-4.61	22.83	-58.72	39.57	-4.85	27.81	-18.19	2.31	-11.29	0.08	-22.39	-54.57	-34.58	3.28	18.97	12.06	1.33	-6.63	5.01	
-12.80	3.57	0.88	-46.24	1.09	87.24	6.23	20.92	-3.35	-1.81	-8.40	-5.69	0.71	-39.41	0.61	-21.18	26.20	9.16	36.83	-59.67	-35.04	1.27	-42.50	-1.18	-2.17	2.47	-0.46	17.73	31.16	-8.98	-32.06	-66.73	27.27	-4.21	-39.71	7.05	-22.75	3.35	-4.76	23.15	-58.91	39.96	-4.89	27.92	-18.36	2.37	-11.32	0.08	-22.48	-54.80	-34.77	3.28	19.16	12.02	1.27	-6.72	5.01	
-12.80	3.56	0.89	-46.40	1.09	87.27	6.12	20.95	-3.29	-1.72	-8.40	-5.71	0.70	-39.41	0.60	-21.18	26.39	9.18	37.24	-59.84	-34.64	1.39	-42.54	-1.50	-2.17	2.47	-0.46	17.77	31.10	-8.93	-32.14	-66.68	26.92	-4.26	-39.54	7.25	-22.32	3.32	-4.67	23.37	-59.08	40.24	-4.92	28.03	-18.46	2.42	-11.32	0.09	-22.60	-54.99	-34.96	3.27	19.29	12.02	1.11	-6.81	5.01	
-12.80	3.55	0.90	-46.50	1.10	87.28	6.01	21.09	-3.31	-1.66	-8.43	-5.71	0.71	-39.41	0.61	-21.28	26.47	9.34	37.67	-60.05	-34.34	1.45	-42.64	-1.67	-2.40	2.47	-0.51	17.86	31.13	-9.00	-32.50	-66.77	26.79	-4.22	-39.69	7.07	-22.20	3.31	-4.65	23.48	-59.16	40.35	-4.94	28.08	-18.46	2.42	-11.36	0.09	-22.65	-55.09	-35.06	3.27	19.36	12.01	1.04	-6.89	5.01	
-12.80	3.54	0.91	-46.69	1.03	87.34	6.05	21.11	-3.35	-1.67	-8.45	-5.74	0.74	-39.40	0.64	-21.27	26.36	9.39	37.73	-60.03	-34.37	1.44	-42.70	-1.63	-2.20	2.47	-0.47	17.82	31.16	-9.00	-32.78	-66.77	26.41	-4.23	-39.73	7.10	-21.41	3.25	-4.49	23.73	-59.37	40.59	-4.97	28.14	-18.54	2.42	-11.37	0.09	-22.84	-55.33	-35.29	3.27	19.56	11.99	1.03	-6.93	5.01	
-12.79	3.53	0.92	-46.92	0.91	87.35	6.22	21.03	-3.39	-1.77	-8.37	-5.85	0.90	-39.40	0.78	-21.20	26.11	9.27	37.49	-59.72	-34.51	1.47	-42.74	-1.71	-1.98	2.47	-0.42	17.56	31.07	-8.82	-32.72	-66.54	26.11	-4.26	-39.63	7.21	-20.25	3.16	-4.26	24.25	-59.62	41.08	-5.00	28.35	-18.61	2.41	-11.42	0.09	-22.80	-55.52	-35.45	3.28	19.59	12.00	1.03	-7.02	5.01	
-12.79	3.53	0.93	-47.24	0.83	87.43	6.39	21.01	-3.49	-1.86	-8.47	-5.82	0.86	-39.47	0.74	-21.36	26.15	9.36	37.50	-59.84	-34.49	1.55	-42.76	-1.94	-0.84	2.46	-0.18	17.62	31.24	-9.02	-32.80	-66.77	26.30	-4.24	-39.92	7.10	-21.19	3.23	-4.45	24.49	-59.96	41.13	-5.02	28.36	-18.52	2.24	-11.43	0.08	-22.99	-55.76	-35.78	3.28	19.60	11.99	1.06	-7.07	5.02	
-12.77	3.54	0.94	-47.44	0.90	87.48	6.23	21.32	-3.52	-1.76	-8.74	-5.73	0.77	-39.64	0.66	-21.51	26.47	9.70	37.57	-60.43	-34.41	1.61	-42.80	-2.11	0.96	2.46	0.20	17.93	31.51	-9.41	-32.81	-67.39	26.47	-4.22	-39.90	7.04	-20.85	3.20	-4.38	24.39	-60.07	41.00	-5.03	28.23	-18.38	2.04	-11.54	0.06	-23.26	-55.92	-35.93	3.28	19.68	11.85	1.39	-7.20	5.02	
-12.76	3.52	0.93	-47.84	0.84	87.54	6.36	21.28	-3.58	-1.82	-8.80	-5.94	0.97	-39.83	0.84	-21.44	26.41	9.60	37.08	-60.36	-34.68	1.62	-42.55	-2.14	0.53	2.46	0.11	17.85	31.56	-9.46	-32.61	-67.51	26.88	-4.16	-39.82	6.88	-20.88	3.20	-4.39	24.71	-60.46	41.14	-5.03	28.33	-18.18	1.76	-11.85	0.04	-23.53	-56.19	-35.85	3.23	19.69	11.40	2.27	-7.53	5.05	
-12.74	3.51	0.92	-48.22	0.79	87.64	6.48	21.33	-3.57	-1.85	-8.86	-6.18	1.11	-39.98	0.96	-21.33	26.38	9.42	36.63	-60.52	-35.27	1.51	-41.98	-1.86	-0.35	2.46	-0.07	17.79	31.60	-9.48	-32.65	-67.70	27.26	-4.12	-39.39	6.84	-21.40	3.24	-4.49	24.75	-60.80	40.79	-5.00	28.32	-17.72	1.25	-12.39	0.00	-23.76	-56.29	-35.92	3.15	19.54	10.79	3.38	-8.08	5.11	
-12.71	3.50	0.90	-48.64	0.73	87.71	6.54	21.24	-3.42	-1.80	-8.88	-6.47	1.29	-39.89	1.11	-20.98	26.18	9.06	35.88	-60.80	-36.08	1.38	-40.46	-1.54	-3.27	2.48	-0.69	17.45	31.35	-9.16	-32.58	-67.65	27.55	-4.14	-37.91	7.19	-20.50	3.18	-4.31	24.72	-61.06	40.47	-4.92	28.22	-17.28	0.74	-13.17	-0.05	-23.76	-56.25	-35.71	3.06	19.02	10.14	4.52	-8.62	5.19	
